<?xml version="1.0" encoding="utf-8"?>
<svg version="1.1" id="Layer_1" xmlns="http://www.w3.org/2000/svg" xmlns:xlink="http://www.w3.org/1999/xlink" x="0px" y="0px"
	 viewBox="0 0 128 128" enable-background="new 0 0 128 128" xml:space="preserve">
<g>
	<path d="M23.2,10h81.5v13.8H23.2V10z"/>
	<path d="M63.8,48.9c14.4,0,25.3,11.6,25.3,27s-10.9,27-25.3,27c-14.2,0-24.9-11.6-24.9-27S49.6,48.9,63.8,48.9 M21.6,75.8
		c0,24.1,18.2,42.2,42.2,42.2c15.8,0,25.3-11.1,25.3-11.1v8.9h17.3V75.8c0-24.1-18.3-42.2-42.6-42.2C39.7,33.7,21.6,51.9,21.6,75.8"
		/>
</g>
<path fill="#FF0000" d="M84.8,65v13.8c0,9.2-9.2,18.5-18.5,18.5v9.2h13.8v4.6H47.8v-4.6h13.8v-9.2c-9.2,0-18.5-9.2-18.5-18.5V65h4.6
	v13.8c0,6.9,6.9,13.8,13.8,13.8h4.6c6.9,0,13.8-6.9,13.8-13.8V65H84.8z M61.7,37.3h4.6c5.1,0,9.3,4.1,9.3,9.2v32.4
	c0,5-4.1,9.2-9.3,9.2h-4.6c-5.1,0-9.3-4.1-9.3-9.2V46.5C52.5,41.5,56.6,37.3,61.7,37.3z"/>
</svg>
